<svg width="16" height="17" viewBox="0 0 16 17" fill="none" xmlns="http://www.w3.org/2000/svg">
<path d="M9.69232 2.73724C10.829 1.60061 12.6718 1.60061 13.8084 2.73724C14.9451 3.87388 14.9451 5.71672 13.8084 6.85336L11.4601 9.2017C10.2397 10.4221 8.26106 10.4221 7.04067 9.20171L6.56732 8.72836C6.32324 8.48428 5.92751 8.48428 5.68344 8.72836C5.43936 8.97244 5.43936 9.36816 5.68344 9.61224L6.15679 10.0856C7.86533 11.7941 10.6354 11.7941 12.344 10.0856L14.6923 7.73724C16.3171 6.11245 16.3171 3.47815 14.6923 1.85336C13.0675 0.228568 10.4332 0.228569 8.80844 1.85336L6.93344 3.72836C6.68936 3.97243 6.68936 4.36816 6.93344 4.61224C7.17751 4.85632 7.57324 4.85632 7.81732 4.61224L9.69232 2.73724Z" fill="#717171"/>
<path d="M4.54067 7.88888C5.76106 6.66849 7.7397 6.66849 8.96009 7.88888L9.43344 8.36222C9.67752 8.6063 10.0732 8.6063 10.3173 8.36222C10.5614 8.11815 10.5614 7.72242 10.3173 7.47834L9.84397 7.00499C8.13543 5.29645 5.36533 5.29645 3.65679 7.00499L1.30843 9.35335C-0.316355 10.9781 -0.316352 13.6124 1.30844 15.2372C2.93323 16.862 5.56753 16.862 7.19232 15.2372L9.06732 13.3622C9.3114 13.1182 9.3114 12.7224 9.06732 12.4783C8.82324 12.2343 8.42752 12.2343 8.18344 12.4783L6.30844 14.3533C5.1718 15.49 3.32896 15.49 2.19232 14.3533C1.05569 13.2167 1.05568 11.3739 2.19232 10.2372L4.54067 7.88888Z" fill="#717171"/>
</svg>
