<svg width="18" height="19" viewBox="0 0 18 19" fill="none" xmlns="http://www.w3.org/2000/svg">
<path d="M3.55806 5.97798C3.31398 6.22206 3.31398 6.61779 3.55806 6.86186C3.80214 7.10594 4.19786 7.10594 4.44194 6.86186L8.375 2.92881L8.375 13.9199C8.375 14.2651 8.65482 14.5449 9 14.5449C9.34518 14.5449 9.625 14.2651 9.625 13.9199L9.625 2.92881L13.5581 6.86187C13.8021 7.10594 14.1979 7.10594 14.4419 6.86187C14.686 6.61779 14.686 6.22206 14.4419 5.97798L9.44194 0.97798C9.43812 0.974158 9.43425 0.97039 9.43034 0.966678C9.31602 0.858129 9.16478 0.796704 9.00691 0.79496C9.00461 0.794935 9.00231 0.794922 9 0.794922C8.99769 0.794922 8.99539 0.794935 8.99309 0.79496C8.83141 0.796746 8.67667 0.861134 8.56143 0.974632C8.5603 0.975743 8.55918 0.976859 8.55806 0.97798L3.55806 5.97798Z" fill="#222222"/>
<path d="M0.875 17.6699C0.875 17.3247 1.15482 17.0449 1.5 17.0449H16.5C16.8452 17.0449 17.125 17.3247 17.125 17.6699C17.125 18.0151 16.8452 18.2949 16.5 18.2949H1.5C1.15482 18.2949 0.875 18.0151 0.875 17.6699Z" fill="#222222"/>
</svg>
